<?xml version="1.0" encoding="UTF-8" standalone="no"?>
<svg
   xmlns:dc="http://purl.org/dc/elements/1.1/"
   xmlns:cc="http://creativecommons.org/ns#"
   xmlns:rdf="http://www.w3.org/1999/02/22-rdf-syntax-ns#"
   xmlns:svg="http://www.w3.org/2000/svg"
   xmlns="http://www.w3.org/2000/svg"
   xmlns:xlink="http://www.w3.org/1999/xlink"
   xmlns:sodipodi="http://sodipodi.sourceforge.net/DTD/sodipodi-0.dtd"
   xmlns:inkscape="http://www.inkscape.org/namespaces/inkscape"
   version="1.1"
   id="Layer_1"
   x="0px"
   y="0px"
   width="53.356789"
   height="48.468998"
   viewBox="0 0 53.356788 48.468997"
   enable-background="new 0 0 218.304 85.54"
   xml:space="preserve"
   sodipodi:docname="logo_without_text.svg"
   inkscape:version="1.0.2-2 (e86c870879, 2021-01-15)"><metadata
   id="metadata113"><rdf:RDF><cc:Work
       rdf:about=""><dc:format>image/svg+xml</dc:format><dc:type
         rdf:resource="http://purl.org/dc/dcmitype/StillImage" /><dc:title></dc:title></cc:Work></rdf:RDF></metadata><defs
   id="defs111" /><sodipodi:namedview
   pagecolor="#ffffff"
   bordercolor="#666666"
   borderopacity="1"
   objecttolerance="10"
   gridtolerance="10"
   guidetolerance="10"
   inkscape:pageopacity="0"
   inkscape:pageshadow="2"
   inkscape:window-width="1920"
   inkscape:window-height="991"
   id="namedview109"
   showgrid="false"
   inkscape:zoom="6.1199062"
   inkscape:cx="99.352394"
   inkscape:cy="42.769"
   inkscape:window-x="-9"
   inkscape:window-y="-9"
   inkscape:window-maximized="1"
   inkscape:current-layer="g106"
   fit-margin-top="0"
   fit-margin-left="0"
   fit-margin-right="0"
   fit-margin-bottom="0" />
<g
   id="g106"
   transform="translate(-9.799606,-0.00100017)">
	
	<g
   id="g84">
		<radialGradient
   id="SVGID_1_"
   cx="36.413601"
   cy="15.458"
   r="19.290701"
   gradientUnits="userSpaceOnUse">
			<stop
   offset="0"
   style="stop-color:#FFFFFF"
   id="stop34" />
			<stop
   offset="1"
   style="stop-color:#F26522"
   id="stop36" />
		</radialGradient>
		<circle
   fill="url(#SVGID_1_)"
   cx="36.535999"
   cy="29.636999"
   r="18.833"
   id="circle39"
   style="fill:url(#SVGID_1_)" />
		<radialGradient
   id="SVGID_2_"
   cx="36.412102"
   cy="15.458"
   r="19.2908"
   gradientUnits="userSpaceOnUse">
			<stop
   offset="0"
   style="stop-color:#FFFFFF"
   id="stop41" />
			<stop
   offset="1"
   style="stop-color:#92278F"
   id="stop43" />
		</radialGradient>
		<path
   fill="url(#SVGID_2_)"
   d="m 36.534,48.47 c -10.4,0 -18.832,-8.432 -18.832,-18.833 0,-10.401 8.432,-18.833 18.832,-18.833"
   id="path46"
   style="fill:url(#SVGID_2_)" />
		<g
   id="g56">
			<g
   id="g54">
				<circle
   fill="#f26522"
   cx="26.695999"
   cy="3.9260001"
   r="3.925"
   id="circle48" />
				<circle
   fill="#92278f"
   cx="46.186001"
   cy="3.9260001"
   r="3.925"
   id="circle50" />
				<circle
   fill="#bd1a8d"
   cx="36.497002"
   cy="5.4369998"
   r="3.9260001"
   id="circle52" />
			</g>
		</g>
		<path
   fill="#f26522"
   d="m 19.353,16.979 c 3.6,-4.048 8.427,-6.36 13.422,-6.875 -6.356,-2.625 -13.943,-1.11 -18.773,4.32 -6.08,6.839 -5.491,17.297 1.302,23.41 -2.474,-6.933 -1.189,-14.966 4.049,-20.855 z"
   id="path58" />
		<path
   fill="#92278f"
   d="m 53.603,16.979 c -3.6,-4.048 -8.427,-6.36 -13.422,-6.875 6.356,-2.625 13.943,-1.11 18.773,4.32 6.08,6.839 5.491,17.297 -1.302,23.41 2.474,-6.933 1.189,-14.966 -4.049,-20.855 z"
   id="path60" />
		<g
   id="g82">
			<defs
   id="defs63">
				<circle
   id="SVGID_3_"
   cx="36.535999"
   cy="29.636999"
   r="18.833" />
			</defs>
			<clipPath
   id="SVGID_4_">
				<use
   xlink:href="#SVGID_3_"
   overflow="visible"
   id="use65"
   x="0"
   y="0"
   width="100%"
   height="100%" />
			</clipPath>
			<g
   opacity="0.5"
   clip-path="url(#SVGID_4_)"
   id="g72">
				<g
   id="g70">
					<path
   fill="#ffffff"
   d="m 26.111,10.896 c 4.247,0 8.086,1.47 8.29,6.167 0.123,2.981 -2.246,5.35 -5.799,6.575 v 0.082 c 5.921,0.654 7.882,4.901 7.882,7.596 0,6.208 -5.799,8.658 -11.435,8.658 -3.879,0 -6.575,-0.245 -8.74,-0.98 -0.694,-0.245 -1.103,-0.939 -1.103,-2.165 V 15.592 c 0,-1.715 -0.817,-2.409 -2.573,-2.695 -0.613,-0.163 -0.98,-0.286 -0.776,-0.735 l 0.327,-0.776 c 0.164,-0.368 0.449,-0.49 0.694,-0.49 z m -5.146,12.21 h 2.532 c 3.349,0 5.146,-2.532 5.146,-5.228 0,-3.88 -1.919,-4.778 -5.309,-4.778 h -2.369 z m 0,11.027 c 0,2.736 1.348,3.635 3.88,3.635 3.349,0 5.268,-2.45 5.187,-6.289 C 29.95,27.722 27.5,25.312 23.416,25.312 h -2.451 z"
   id="path68" />
				</g>
			</g>
			<g
   opacity="0.5"
   clip-path="url(#SVGID_4_)"
   id="g80">
				<g
   id="g78">
					<g
   id="g76">
						<path
   fill="#ffffff"
   d="m 60.194,10.907 c 0.245,0 0.531,0.123 0.694,0.49 l 0.327,0.776 c 0.204,0.449 -0.163,0.572 -0.776,0.735 -1.756,0.286 -2.573,0.98 -2.573,2.695 v 21.236 c 0,1.226 -0.409,1.919 -1.103,2.165 -2.165,0.735 -4.86,0.98 -8.74,0.98 -5.636,0 -11.435,-2.451 -11.435,-8.658 0,-2.695 1.96,-6.942 7.882,-7.596 v -0.082 c -3.553,-1.225 -5.921,-3.594 -5.799,-6.575 0.204,-4.696 4.043,-6.167 8.29,-6.167 h 13.233 z m -8.086,14.416 h -2.451 c -4.083,0 -6.534,2.41 -6.616,6.167 -0.082,3.839 1.838,6.289 5.187,6.289 2.532,0 3.88,-0.898 3.88,-3.635 z m 0,-12.211 h -2.369 c -3.39,0 -5.309,0.898 -5.309,4.778 0,2.695 1.797,5.228 5.146,5.228 h 2.532 z"
   id="path74" />
					</g>
				</g>
			</g>
		</g>
	</g>
	
</g>
</svg>
